<?xml version="1.0" standalone="no"?>
<!DOCTYPE svg PUBLIC "-//W3C//DTD SVG 20010904//EN"
 "http://www.w3.org/TR/2001/REC-SVG-20010904/DTD/svg10.dtd">
<svg version="1.0" xmlns="http://www.w3.org/2000/svg"
 width="483.000000pt" height="120.000000pt" viewBox="0 0 483.000000 120.000000"
 preserveAspectRatio="xMidYMid meet">

<g transform="translate(0.000000,120.000000) scale(0.100000,-0.100000)"
fill="#4B76B7" stroke="none">
<path d="M689 1105 c-26 -13 -71 -46 -100 -73 l-53 -49 -38 15 c-28 11 -44 12
-61 5 -31 -14 -400 -625 -395 -655 3 -19 55 -40 408 -170 223 -81 413 -148
423 -148 9 0 22 10 27 23 5 12 34 179 65 370 63 393 63 385 -14 408 -38 11
-39 12 -45 70 -11 94 -35 160 -71 196 -41 41 -80 43 -146 8z m122 -5 c10 -6
28 -28 39 -50 22 -42 48 -175 37 -186 -7 -8 -327 107 -327 117 0 12 98 90 138
110 40 21 83 24 113 9z m-321 -149 c-28 -8 -38 -35 -20 -56 17 -20 50 -1 50
27 0 17 3 19 12 10 9 -9 9 -18 0 -37 -20 -43 -82 -28 -82 20 0 27 18 45 45 44
17 -1 16 -2 -5 -8z m396 -160 c-23 -25 -11 -53 23 -49 22 3 26 7 24 33 -2 26
-1 27 9 11 17 -30 -6 -68 -39 -64 -36 4 -50 29 -35 62 6 14 17 26 23 26 8 0 6
-7 -5 -19z m-368 -303 c20 -20 13 -27 -17 -15 -37 14 -59 4 -67 -29 -6 -22 -2
-31 16 -46 30 -24 51 -8 32 23 -16 26 -13 29 16 18 25 -9 26 -16 12 -54 -9
-23 -14 -26 -38 -21 -62 15 -84 73 -44 119 17 20 72 23 90 5z m82 -74 c0 -41
9 -42 40 -9 23 25 50 33 50 16 0 -19 -43 -121 -51 -121 -12 0 -11 23 1 56 10
26 10 27 -14 11 -27 -18 -40 -10 -48 28 -3 15 -7 11 -17 -17 -7 -21 -17 -38
-22 -38 -13 0 -11 22 5 61 7 19 16 42 20 53 10 29 36 1 36 -40z"/>
<path d="M2928 709 c-15 -8 -18 -25 -18 -105 l0 -95 -31 22 c-73 51 -167 28
-206 -51 -25 -49 -32 -156 -12 -207 35 -94 154 -132 221 -70 25 23 25 23 34 3
11 -24 49 -33 70 -16 22 19 21 492 -2 514 -18 18 -32 20 -56 5z m-44 -262 c28
-38 28 -126 0 -164 -36 -48 -103 -43 -130 9 -22 42 -15 139 11 168 28 31 91
24 119 -13z"/>
<path d="M1452 695 c-142 -44 -212 -187 -167 -341 22 -76 87 -143 161 -165 99
-29 262 -11 284 31 16 30 13 245 -4 259 -9 8 -50 11 -117 9 l-104 -3 0 -30 0
-30 68 -3 68 -3 -3 -76 -3 -77 -35 -9 c-55 -14 -134 8 -175 48 -66 67 -67 205
-1 271 40 40 105 59 166 49 76 -13 102 -11 113 7 36 56 -136 99 -251 63z"/>
<path d="M3121 686 c-8 -9 -11 -84 -9 -251 3 -260 5 -266 61 -251 l27 6 2 168
3 167 49 -90 c61 -113 71 -125 111 -125 39 0 51 13 106 120 l44 85 5 -155 c3
-85 9 -161 13 -167 10 -16 59 -17 75 -1 17 17 17 479 0 496 -17 17 -73 15 -89
-4 -8 -10 -46 -78 -85 -152 l-72 -136 -67 135 c-37 74 -74 142 -83 152 -18 20
-75 23 -91 3z"/>
<path d="M4552 658 c-6 -6 -12 -36 -12 -65 0 -52 -1 -53 -29 -53 -60 0 -68
-66 -8 -72 l32 -3 5 -117 c5 -109 7 -119 30 -143 51 -50 180 -43 180 10 0 26
-12 31 -74 37 -37 4 -48 38 -44 141 l3 72 60 5 c47 4 61 9 63 23 6 32 -17 47
-74 47 l-53 0 -3 63 c-3 61 -4 62 -33 65 -17 2 -36 -3 -43 -10z"/>
<path d="M1915 541 c-49 -22 -73 -48 -91 -98 -40 -114 13 -235 116 -263 129
-35 240 52 240 187 0 64 -17 109 -56 144 -56 50 -139 62 -209 30z m142 -83
c43 -40 39 -151 -7 -193 -30 -27 -90 -22 -117 10 -19 21 -23 38 -23 88 0 67
16 102 54 117 28 12 66 3 93 -22z"/>
<path d="M2349 550 c-76 -23 -119 -89 -119 -183 0 -69 12 -103 53 -145 67 -70
190 -68 261 3 64 64 70 188 14 268 -39 54 -134 80 -209 57z m95 -70 c51 -19
74 -126 41 -189 -31 -60 -125 -58 -151 4 -28 68 -11 155 35 180 31 17 42 18
75 5z"/>
<path d="M3803 551 c-41 -11 -63 -28 -63 -52 0 -28 14 -31 84 -18 79 15 116 4
116 -34 0 -22 -5 -25 -59 -30 -32 -2 -75 -13 -96 -23 -92 -43 -101 -163 -15
-206 47 -24 78 -23 135 7 49 24 49 24 63 4 9 -13 23 -19 40 -17 l27 3 3 132
c3 147 -7 189 -52 218 -30 20 -134 28 -183 16z m137 -225 c0 -26 -7 -41 -31
-60 -46 -39 -109 -29 -109 17 0 45 42 74 113 76 24 1 27 -2 27 -33z"/>
<path d="M4317 545 c-22 -7 -49 -23 -61 -34 -29 -27 -36 -26 -36 3 0 38 -61
51 -80 17 -13 -26 -13 -306 0 -332 12 -22 59 -26 78 -7 7 7 12 44 12 96 0 106
16 144 74 172 23 11 47 20 53 20 14 0 43 28 43 40 0 10 -29 40 -38 40 -4 -1
-24 -7 -45 -15z"/>
</g>
</svg>
